# xmcd
#
# Track frame offsets:
#	150
#	12390
#	28230
#	42760
#	56779
#	65699
#	79868
#	98527
#	107538
#	122725
#	132300
#	149608
#
# Disc length: 2212 seconds
# Revision: 0
# Processed by: cddbd v1.5.2PL0 Copyright (c) Steve Scherf et al.
# Submitted via: dBpowerAMP V12.0
#
DISCID=a808a20c
DTITLE=Robert Hale - Pure and Simple
DYEAR=2011
DGENRE=Country
TTITLE0=Did She Mention My Name?
TTITLE1=Gone Just the Same
TTITLE2=There's Another Baby Waiting For Me Down The Line
TTITLE3=Pure and Simple
TTITLE4=Savior, Save Me From Myself
TTITLE5=These Old Blues
TTITLE6=When The Times Were Good
TTITLE7=Dirt Poor
TTITLE8=It Hasn't Happened Yet
TTITLE9=Waves of Sorrow
TTITLE10=You're Wrong
TTITLE11=Sir Duke
EXTD=
EXTT0=
EXTT1=
EXTT2=
EXTT3=
EXTT4=
EXTT5=
EXTT6=
EXTT7=
EXTT8=
EXTT9=
EXTT10=
EXTT11=
PLAYORDER=
